<svg xmlns="http://www.w3.org/2000/svg" viewBox="0 0 512 512">
  <defs>
    <linearGradient id="woodGradient" x1="0%" y1="0%" x2="100%" y2="100%">
      <stop offset="0%" style="stop-color:#8B4513;stop-opacity:1" />
      <stop offset="50%" style="stop-color:#A0522D;stop-opacity:1" />
      <stop offset="100%" style="stop-color:#8B4513;stop-opacity:1" />
    </linearGradient>
  </defs>
  
  <!-- Background Circle -->
  <circle cx="256" cy="256" r="256" fill="url(#woodGradient)"/>
  
  <!-- Kitchen Cabinet Icon -->
  <g transform="translate(256, 256)">
    <!-- Upper Cabinet -->
    <rect x="-80" y="-120" width="160" height="80" fill="#D2691E" stroke="#654321" stroke-width="4" rx="4"/>
    <rect x="-70" y="-110" width="140" height="60" fill="#CD853F" stroke="#654321" stroke-width="2" rx="2"/>
    <line x1="0" y1="-120" x2="0" y2="-50" stroke="#654321" stroke-width="3"/>
    
    <!-- Lower Cabinet -->
    <rect x="-80" y="20" width="160" height="100" fill="#D2691E" stroke="#654321" stroke-width="4" rx="4"/>
    <rect x="-70" y="30" width="140" height="80" fill="#CD853F" stroke="#654321" stroke-width="2" rx="2"/>
    <line x1="0" y1="20" x2="0" y2="120" stroke="#654321" stroke-width="3"/>
    
    <!-- Countertop -->
    <rect x="-90" y="-10" width="180" height="20" fill="#F5DEB3" stroke="#654321" stroke-width="3" rx="2"/>
    
    <!-- Door Handles -->
    <circle cx="-30" cy="-80" r="6" fill="#FFD700" stroke="#654321" stroke-width="2"/>
    <circle cx="30" cy="-80" r="6" fill="#FFD700" stroke="#654321" stroke-width="2"/>
    <circle cx="-30" cy="70" r="6" fill="#FFD700" stroke="#654321" stroke-width="2"/>
    <circle cx="30" cy="70" r="6" fill="#FFD700" stroke="#654321" stroke-width="2"/>
    
    <!-- Wood Grain Details -->
    <path d="M -60,-100 Q -50,-95 -40,-100" stroke="#8B4513" stroke-width="1" fill="none" opacity="0.3"/>
    <path d="M 40,-90 Q 50,-85 60,-90" stroke="#8B4513" stroke-width="1" fill="none" opacity="0.3"/>
    <path d="M -60,50 Q -50,55 -40,50" stroke="#8B4513" stroke-width="1" fill="none" opacity="0.3"/>
    <path d="M 40,60 Q 50,65 60,60" stroke="#8B4513" stroke-width="1" fill="none" opacity="0.3"/>
  </g>
  
  <!-- Company Name -->
  <text x="256" y="420" font-family="Arial, sans-serif" font-size="36" font-weight="bold" text-anchor="middle" fill="#FFFFFF" stroke="#654321" stroke-width="1">
    Graphitube
  </text>
</svg>
